<svg width="166" height="38" viewBox="0 0 166 38" fill="none" xmlns="http://www.w3.org/2000/svg">
<path d="M55.618 5.89043V9.93126H48.3V28.5763H43.591V9.93126H36.5912V5.89043H55.618Z" fill="#010101"/>
<path d="M73.7789 28.5763H69.9926L69.5153 24.6628C68.7729 26.084 67.6593 27.187 66.1745 27.9718C64.7109 28.7354 62.9821 29.1172 60.9882 29.1172C58.8246 29.1172 57.1595 28.6824 55.9929 27.8127C54.8475 26.943 54.2747 25.7021 54.2747 24.0901C54.2747 23.0507 54.4869 22.1492 54.9111 21.3856C55.3565 20.6219 56.0035 20.0068 56.852 19.5402C57.6368 19.0947 58.5171 18.7659 59.4928 18.5538C60.4686 18.3205 62.1337 18.0872 64.4882 17.8538C66.4396 17.6629 67.723 17.4296 68.3381 17.1538C68.9744 16.8569 69.2926 16.3902 69.2926 15.7539V15.722C69.2926 14.916 68.9214 14.3115 68.179 13.9084C67.4578 13.4842 66.3654 13.2721 64.9018 13.2721C63.1837 13.2721 61.9003 13.5478 61.0519 14.0994C60.2034 14.6509 59.7261 15.5205 59.6201 16.7084H54.8156C55.0278 14.4812 55.9717 12.7736 57.6474 11.5858C59.3443 10.3767 61.6564 9.77217 64.5836 9.77217C67.7654 9.77217 70.0881 10.3237 71.5517 11.4267C73.0365 12.5085 73.7789 14.2372 73.7789 16.6129V28.5763ZM62.4837 25.6491C64.3715 25.6491 65.9836 25.0976 67.3199 23.9946C68.6563 22.8704 69.3244 21.5765 69.3244 20.1129V19.4765C68.985 19.7523 68.4866 19.9962 67.829 20.2083C67.1927 20.3992 66.323 20.5583 65.22 20.6856C63.7564 20.8341 62.6852 20.9825 62.0064 21.131C61.3488 21.2795 60.8185 21.4704 60.4155 21.7037C60.0125 21.9371 59.7261 22.2022 59.5565 22.4992C59.3868 22.7749 59.3019 23.1143 59.3019 23.5173V23.5492C59.3019 24.2491 59.5671 24.7794 60.0974 25.14C60.6276 25.4794 61.4231 25.6491 62.4837 25.6491Z" fill="#010101"/>
<path d="M82.4653 4.2041V28.5763H77.7881V4.2041H82.4653Z" fill="#010101"/>
<path d="M104.913 28.5763H101.127L100.649 24.6628C99.9069 26.084 98.7933 27.187 97.3084 27.9718C95.8448 28.7354 94.1161 29.1172 92.1222 29.1172C89.9586 29.1172 88.2935 28.6824 87.1268 27.8127C85.9814 26.943 85.4087 25.7021 85.4087 24.0901C85.4087 23.0507 85.6208 22.1492 86.045 21.3856C86.4905 20.6219 87.1374 20.0068 87.9859 19.5402C88.7707 19.0947 89.651 18.7659 90.6268 18.5538C91.6025 18.3205 93.2676 18.0872 95.6221 17.8538C97.5736 17.6629 98.8569 17.4296 99.472 17.1538C100.108 16.8569 100.427 16.3902 100.427 15.7539V15.722C100.427 14.916 100.055 14.3115 99.313 13.9084C98.5918 13.4842 97.4994 13.2721 96.0357 13.2721C94.3176 13.2721 93.0343 13.5478 92.1858 14.0994C91.3374 14.6509 90.8601 15.5205 90.754 16.7084H85.9496C86.1617 14.4812 87.1056 12.7736 88.7813 11.5858C90.4783 10.3767 92.7904 9.77217 95.7176 9.77217C98.8993 9.77217 101.222 10.3237 102.686 11.4267C104.17 12.5085 104.913 14.2372 104.913 16.6129V28.5763ZM93.6176 25.6491C95.5055 25.6491 97.1175 25.0976 98.4539 23.9946C99.7902 22.8704 100.458 21.5765 100.458 20.1129V19.4765C100.119 19.7523 99.6205 19.9962 98.963 20.2083C98.3266 20.3992 97.4569 20.5583 96.3539 20.6856C94.8903 20.8341 93.8191 20.9825 93.1404 21.131C92.4828 21.2795 91.9525 21.4704 91.5495 21.7037C91.1465 21.9371 90.8601 22.2022 90.6904 22.4992C90.5207 22.7749 90.4359 23.1143 90.4359 23.5173V23.5492C90.4359 24.2491 90.701 24.7794 91.2313 25.14C91.7616 25.4794 92.557 25.6491 93.6176 25.6491Z" fill="#010101"/>
<path d="M118.754 13.6857C117.057 13.6857 115.773 14.1842 114.904 15.1811C114.034 16.1781 113.599 17.6523 113.599 19.6038V28.5763H108.89V10.2812H112.867L113.281 14.0994C113.896 12.6994 114.798 11.6282 115.986 10.8858C117.195 10.1434 118.626 9.77217 120.281 9.77217C122.699 9.77217 124.587 10.4828 125.944 11.9039C127.302 13.3251 127.981 15.2978 127.981 17.822V28.5763H123.272V18.9674C123.272 17.1432 122.901 15.8069 122.158 14.9584C121.437 14.11 120.302 13.6857 118.754 13.6857Z" fill="#010101"/>
<path d="M142.329 24.3764H144.238V28.5763H141.119C138.341 28.5763 136.432 28.0248 135.392 26.9218C134.374 25.8188 133.865 23.7082 133.865 20.5901V14.3539H129.665V10.504C130.323 10.504 130.811 10.504 131.129 10.504C131.447 10.4828 131.754 10.4615 132.051 10.4403C132.794 10.4191 133.292 10.26 133.547 9.96307C133.823 9.6449 134.014 9.04037 134.12 8.14948C134.183 7.78888 134.226 7.34343 134.247 6.81314C134.289 6.26164 134.3 5.77377 134.279 5.34953H138.224V10.2812H144.238V14.3539H138.224V19.7947C138.224 21.7886 138.457 23.0507 138.924 23.581C139.391 24.1113 140.526 24.3764 142.329 24.3764Z" fill="#010101"/>
<path d="M166 28.5763H162.214L161.736 24.6628C160.994 26.084 159.88 27.187 158.396 27.9718C156.932 28.7354 155.203 29.1172 153.209 29.1172C151.046 29.1172 149.381 28.6824 148.214 27.8127C147.069 26.943 146.496 25.7021 146.496 24.0901C146.496 23.0507 146.708 22.1492 147.132 21.3856C147.578 20.6219 148.225 20.0068 149.073 19.5402C149.858 19.0947 150.738 18.7659 151.714 18.5538C152.69 18.3205 154.355 18.0872 156.709 17.8538C158.661 17.6629 159.944 17.4296 160.559 17.1538C161.196 16.8569 161.514 16.3902 161.514 15.7539V15.722C161.514 14.916 161.143 14.3115 160.4 13.9084C159.679 13.4842 158.587 13.2721 157.123 13.2721C155.405 13.2721 154.121 13.5478 153.273 14.0994C152.425 14.6509 151.947 15.5205 151.841 16.7084H147.037C147.249 14.4812 148.193 12.7736 149.869 11.5858C151.565 10.3767 153.878 9.77217 156.805 9.77217C159.986 9.77217 162.309 10.3237 163.773 11.4267C165.258 12.5085 166 14.2372 166 16.6129V28.5763ZM154.705 25.6491C156.593 25.6491 158.205 25.0976 159.541 23.9946C160.877 22.8704 161.546 21.5765 161.546 20.1129V19.4765C161.206 19.7523 160.708 19.9962 160.05 20.2083C159.414 20.3992 158.544 20.5583 157.441 20.6856C155.977 20.8341 154.906 20.9825 154.228 21.131C153.57 21.2795 153.04 21.4704 152.637 21.7037C152.234 21.9371 151.947 22.2022 151.778 22.4992C151.608 22.7749 151.523 23.1143 151.523 23.5173V23.5492C151.523 24.2491 151.788 24.7794 152.318 25.14C152.849 25.4794 153.644 25.6491 154.705 25.6491Z" fill="#010101"/>
<path d="M15.8795 1.41428C15.594 0.835702 14.7689 0.835702 14.4833 1.41428L10.6713 9.13701C10.5579 9.36677 10.3386 9.52602 10.0851 9.56286L1.56131 10.8012C0.922695 10.894 0.667721 11.6788 1.12986 12.1292L7.21766 18.0623C7.44342 18.2824 7.51422 18.6168 7.39696 18.9095L1.22176 34.3206C0.916471 35.0825 1.84552 35.7371 2.46027 35.1933L14.779 24.296C15.0212 24.0817 15.3708 24.0395 15.6571 24.1899L23.1678 28.1379C23.739 28.4381 24.4065 27.9531 24.2974 27.3172L22.8414 18.8294C22.798 18.5768 22.8818 18.3191 23.0653 18.1402L29.233 12.1292C29.6951 11.6788 29.4402 10.894 28.8016 10.8012L20.2778 9.56286C20.0242 9.52602 19.805 9.36677 19.6916 9.13701L15.8795 1.41428Z" fill="#FF5C00"/>
</svg>
