<svg width="143" height="32" viewBox="0 0 143 32" fill="none" xmlns="http://www.w3.org/2000/svg">
<path d="M47.6264 5.04399V8.50419H41.3599V24.4701H37.3275V8.50419H31.3335V5.04399H47.6264Z" fill="#010101"/>
<path d="M63.1777 24.4701H59.9355L59.5268 21.1189C58.891 22.3359 57.9374 23.2804 56.666 23.9525C55.4127 24.6064 53.9323 24.9333 52.2249 24.9333C50.3722 24.9333 48.9464 24.5609 47.9474 23.8162C46.9665 23.0715 46.4761 22.0089 46.4761 20.6285C46.4761 19.7385 46.6577 18.9665 47.021 18.3126C47.4025 17.6587 47.9565 17.132 48.683 16.7324C49.3551 16.3509 50.1089 16.0694 50.9444 15.8878C51.7799 15.688 53.2058 15.4882 55.222 15.2884C56.893 15.1249 57.9919 14.9251 58.5187 14.6889C59.0636 14.4347 59.3361 14.0351 59.3361 13.4901V13.4629C59.3361 12.7727 59.0182 12.255 58.3825 11.9099C57.7649 11.5466 56.8295 11.365 55.5762 11.365C54.1049 11.365 53.006 11.6011 52.2794 12.0734C51.5529 12.5456 51.1442 13.2903 51.0534 14.3075H46.9393C47.1209 12.4003 47.9292 10.9381 49.3641 9.92096C50.8172 8.88563 52.7971 8.36796 55.3037 8.36796C58.0283 8.36796 60.0172 8.84022 61.2705 9.78473C62.542 10.7111 63.1777 12.1914 63.1777 14.2258V24.4701ZM53.5055 21.9635C55.1221 21.9635 56.5025 21.4913 57.6468 20.5468C58.7911 19.5841 59.3633 18.4761 59.3633 17.2228V16.6779C59.0727 16.914 58.6458 17.1229 58.0828 17.3045C57.5378 17.468 56.7931 17.6042 55.8486 17.7132C54.5953 17.8404 53.678 17.9675 53.0968 18.0947C52.5337 18.2218 52.0796 18.3853 51.7345 18.5851C51.3894 18.7849 51.1442 19.0119 50.9989 19.2662C50.8536 19.5023 50.7809 19.793 50.7809 20.1381V20.1653C50.7809 20.7647 51.008 21.2188 51.4621 21.5276C51.9162 21.8182 52.5973 21.9635 53.5055 21.9635Z" fill="#010101"/>
<path d="M70.616 3.59998V24.4701H66.6108V3.59998H70.616Z" fill="#010101"/>
<path d="M89.838 24.4701H86.5957L86.187 21.1189C85.5513 22.3359 84.5977 23.2804 83.3263 23.9525C82.073 24.6064 80.5926 24.9333 78.8852 24.9333C77.0325 24.9333 75.6067 24.5609 74.6077 23.8162C73.6268 23.0715 73.1364 22.0089 73.1364 20.6285C73.1364 19.7385 73.318 18.9665 73.6813 18.3126C74.0627 17.6587 74.6167 17.132 75.3433 16.7324C76.0153 16.3509 76.7691 16.0694 77.6047 15.8878C78.4402 15.688 79.8661 15.4882 81.8822 15.2884C83.5533 15.1249 84.6522 14.9251 85.179 14.6889C85.7239 14.4347 85.9963 14.0351 85.9963 13.4901V13.4629C85.9963 12.7727 85.6785 12.255 85.0427 11.9099C84.4252 11.5466 83.4897 11.365 82.2364 11.365C80.7652 11.365 79.6663 11.6011 78.9397 12.0734C78.2132 12.5456 77.8045 13.2903 77.7137 14.3075H73.5996C73.7812 12.4003 74.5895 10.9381 76.0244 9.92096C77.4775 8.88563 79.4574 8.36796 81.964 8.36796C84.6885 8.36796 86.6775 8.84022 87.9308 9.78473C89.2022 10.7111 89.838 12.1914 89.838 14.2258V24.4701ZM80.1658 21.9635C81.7823 21.9635 83.1628 21.4913 84.3071 20.5468C85.4514 19.5841 86.0236 18.4761 86.0236 17.2228V16.6779C85.733 16.914 85.3061 17.1229 84.743 17.3045C84.1981 17.468 83.4534 17.6042 82.5089 17.7132C81.2556 17.8404 80.3383 17.9675 79.7571 18.0947C79.194 18.2218 78.7399 18.3853 78.3948 18.5851C78.0497 18.7849 77.8045 19.0119 77.6592 19.2662C77.5139 19.5023 77.4412 19.793 77.4412 20.1381V20.1653C77.4412 20.7647 77.6682 21.2188 78.1223 21.5276C78.5764 21.8182 79.2576 21.9635 80.1658 21.9635Z" fill="#010101"/>
<path d="M101.69 11.7192C100.237 11.7192 99.138 12.146 98.3933 12.9997C97.6486 13.8534 97.2762 15.1158 97.2762 16.7869V24.4701H93.2439V8.80389H96.6496L97.0038 12.0734C97.5305 10.8746 98.3025 9.95729 99.3197 9.32156C100.355 8.68583 101.581 8.36796 102.998 8.36796C105.068 8.36796 106.685 8.97645 107.848 10.1934C109.01 11.4104 109.591 13.0996 109.591 15.2611V24.4701H105.559V16.2419C105.559 14.6799 105.241 13.5355 104.605 12.809C103.988 12.0824 103.016 11.7192 101.69 11.7192Z" fill="#010101"/>
<path d="M121.877 20.8737H123.512V24.4701H120.842C118.463 24.4701 116.828 23.9979 115.938 23.0534C115.066 22.1088 114.63 20.3015 114.63 17.6315V12.2913H111.034V8.99461C111.597 8.99461 112.014 8.99461 112.287 8.99461C112.559 8.97645 112.823 8.95828 113.077 8.94012C113.713 8.92196 114.14 8.78573 114.358 8.53143C114.594 8.25898 114.757 7.74131 114.848 6.97843C114.902 6.66965 114.939 6.28821 114.957 5.83412C114.993 5.36186 115.002 4.94409 114.984 4.58082H118.363V8.80389H123.512V12.2913H118.363V16.9503C118.363 18.6577 118.562 19.7385 118.962 20.1926C119.362 20.6467 120.333 20.8737 121.877 20.8737Z" fill="#010101"/>
<path d="M142.147 24.4701H138.905L138.497 21.1189C137.861 22.3359 136.907 23.2804 135.636 23.9525C134.382 24.6064 132.902 24.9333 131.195 24.9333C129.342 24.9333 127.916 24.5609 126.917 23.8162C125.936 23.0715 125.446 22.0089 125.446 20.6285C125.446 19.7385 125.628 18.9665 125.991 18.3126C126.372 17.6587 126.926 17.132 127.653 16.7324C128.325 16.3509 129.079 16.0694 129.914 15.8878C130.75 15.688 132.176 15.4882 134.192 15.2884C135.863 15.1249 136.962 14.9251 137.488 14.6889C138.033 14.4347 138.306 14.0351 138.306 13.4901V13.4629C138.306 12.7727 137.988 12.255 137.352 11.9099C136.735 11.5466 135.799 11.365 134.546 11.365C133.075 11.365 131.976 11.6011 131.249 12.0734C130.523 12.5456 130.114 13.2903 130.023 14.3075H125.909C126.091 12.4003 126.899 10.9381 128.334 9.92096C129.787 8.88563 131.767 8.36796 134.273 8.36796C136.998 8.36796 138.987 8.84022 140.24 9.78473C141.512 10.7111 142.147 12.1914 142.147 14.2258V24.4701ZM132.475 21.9635C134.092 21.9635 135.472 21.4913 136.617 20.5468C137.761 19.5841 138.333 18.4761 138.333 17.2228V16.6779C138.042 16.914 137.616 17.1229 137.053 17.3045C136.508 17.468 135.763 17.6042 134.818 17.7132C133.565 17.8404 132.648 17.9675 132.067 18.0947C131.503 18.2218 131.049 18.3853 130.704 18.5851C130.359 18.7849 130.114 19.0119 129.969 19.2662C129.823 19.5023 129.751 19.793 129.751 20.1381V20.1653C129.751 20.7647 129.978 21.2188 130.432 21.5276C130.886 21.8182 131.567 21.9635 132.475 21.9635Z" fill="#010101"/>
<path d="M13.5978 1.21106C13.3533 0.715617 12.6468 0.715617 12.4022 1.21106L9.13795 7.8241C9.04083 8.02085 8.85312 8.15721 8.63599 8.18876L1.337 9.24918C0.790155 9.32863 0.571817 10.0007 0.967554 10.3863L6.18059 15.4669C6.37391 15.6553 6.43453 15.9417 6.33413 16.1923L1.04625 29.389C0.784826 30.0414 1.58038 30.602 2.1068 30.1363L12.6554 20.8048C12.8629 20.6213 13.1622 20.5852 13.4073 20.7141L19.8389 24.0947C20.3279 24.3518 20.8995 23.9365 20.8061 23.3919L19.5593 16.1238C19.5222 15.9075 19.5939 15.6868 19.7511 15.5336L25.0325 10.3863C25.4283 10.0007 25.2099 9.32863 24.6631 9.24918L17.3641 8.18876C17.147 8.15721 16.9593 8.02085 16.8621 7.8241L13.5978 1.21106Z" fill="#FF5C00"/>
</svg>
